<?xml version="1.0" encoding="utf-8"?>
<!-- Generator: Adobe Illustrator 22.1.0, SVG Export Plug-In . SVG Version: 6.00 Build 0)  -->
<svg version="1.1" id="图层_1" xmlns="http://www.w3.org/2000/svg" xmlns:xlink="http://www.w3.org/1999/xlink" x="0px" y="0px"
	 viewBox="0 0 85 85" style="enable-background:new 0 0 85 85;" xml:space="preserve">
<style type="text/css">
	.st0{fill:none;stroke:#000000;stroke-miterlimit:10;}
	.st1{opacity:0.5;clip-path:url(#SVGID_2_);fill:none;stroke:#FFB315;stroke-width:6;stroke-miterlimit:10;}
	.st2{clip-path:url(#SVGID_2_);}
	.st3{fill:#FFFFFF;}
	.st4{font-family:'Courier';}
	.st5{font-size:12px;}
</style>
<path class="st0" d="M42.5,78.9l24.8-16.9c0,0,0.3-12.5,1.8-24.8c1.6-12.2,4.4-23.5,4.4-23.5s-20.6-0.5-31-7.6
	c-10.4,7-31,7.6-31,7.6s2.9,11.2,4.4,23.5s1.8,24.8,1.8,24.8L42.5,78.9z"/>
<g>
	<defs>
		<path id="SVGID_1_" d="M42.5,78.9l24.8-16.9c0,0,0.3-12.5,1.8-24.8s4.4-23.5,4.4-23.5s-20.6-0.5-31-7.6c-10.4,7-31,7.6-31,7.6
			s2.9,11.2,4.4,23.5s1.8,24.8,1.8,24.8L42.5,78.9z"/>
	</defs>
	<clipPath id="SVGID_2_">
		<use xlink:href="#SVGID_1_"  style="overflow:visible;"/>
	</clipPath>
	<polyline class="st1" points="17.8,61.9 42.5,25.8 67.3,61.9 	"/>
	<rect x="0.6" y="-4.2" class="st2" width="79" height="31"/>
</g>
<text transform="matrix(1 0 0 1 24.5165 22.9995)"><tspan x="0" y="0" class="st3 st4 st5">NULLA</tspan><tspan x="0" y="14.4" class="st4 st5">EXTRA</tspan><tspan x="0" y="28.8" class="st4 st5">ACADE</tspan><tspan x="7.2" y="43.2" class="st4 st5">MIÆ</tspan></text>
</svg>
